<svg xmlns="http://www.w3.org/2000/svg" viewBox="0 0 512 512" fill="currentColor">
  <path d="M87.53 74.313v71.75h18.688V106.22h39.843V87.53H87.53zm-20 5.874L38.5 164.188l16.188 5.593 29.03-84zm128.157 10.375-88.03 88.03 13.22 13.22 88.03-88.03-13.22-13.22zm39.25 39.25-88.03 88.03 13.22 13.22 88.03-88.03-13.22-13.22zm39.25 39.25-88.03 88.03 13.22 13.22 88.03-88.03-13.22-13.22zm39.25 39.25-88.03 88.03 13.22 13.22 88.03-88.03-13.22-13.22zm39.25 39.25-88.03 88.03 13.22 13.22 88.03-88.03-13.22-13.22zm39.25 39.25-88.03 88.03 13.22 13.22 88.03-88.03-13.22-13.22zm39.25 39.25-88.03 88.03 13.22 13.22 88.03-88.03-13.22-13.22zm-5.875 20v39.843H405.78v18.688h71.75V365.53h-18.688v39.844H418.97z"/>
</svg>
